<svg xmlns="http://www.w3.org/2000/svg" width="30" height="24" viewBox="0 0 30 24">
  <g id="Group_167" data-name="Group 167" transform="translate(-1315 -498)">
    <path id="Path_5017" data-name="Path 5017" d="M7.038,99.318v-1.1H4.067V95.251h-1.1v2.971H0v1.1H2.971v2.971h1.1V99.318Z" transform="translate(1315 414.26)" fill="#ffc731"/>
    <g id="user_5_" data-name="user (5)" transform="translate(1321 412.667)">
      <g id="Group_37" data-name="Group 37" transform="translate(0 101.333)">
        <g id="Group_36" data-name="Group 36" transform="translate(0 0)">
          <path id="Path_4375" data-name="Path 4375" d="M7.127,299.705A3.578,3.578,0,0,0,4.7,298.667c-2.589,0-4.7,3.23-4.7,7.2,0,.442.234.8.522.8s.522-.358.522-.8c0-3.088,1.638-5.6,3.652-5.6a2.773,2.773,0,0,1,1.89.806c.245.229.567.109.717-.269A1.071,1.071,0,0,0,7.127,299.705Z" transform="translate(0 -298.667)" fill="#b9b9b9"/>
        </g>
      </g>
      <g id="Group_35" data-name="Group 35" transform="translate(16.621 101.333)">
        <g id="Group_34" data-name="Group 34" transform="translate(0 0)">
          <path id="Path_4374" data-name="Path 4374" d="M342.5,298.667a3.577,3.577,0,0,0-2.432,1.04,1.075,1.075,0,0,0-.175,1.1c.151.378.471.5.717.269a2.772,2.772,0,0,1,1.891-.808c2.014,0,3.652,2.512,3.652,5.6,0,.442.234.8.522.8s.522-.358.522-.8C347.192,301.9,345.085,298.667,342.5,298.667Z" transform="translate(-339.813 -298.667)" fill="#b9b9b9"/>
        </g>
      </g>
      <g id="Group_27" data-name="Group 27" transform="translate(8.348 85.333)">
        <g id="Group_26" data-name="Group 26">
          <path id="Path_4370" data-name="Path 4370" d="M174.318,85.333c-2.014,0-3.652,2.512-3.652,5.6s1.638,5.6,3.652,5.6,3.652-2.512,3.652-5.6S176.332,85.333,174.318,85.333Zm0,9.6c-1.438,0-2.609-1.8-2.609-4s1.171-4,2.609-4,2.609,1.8,2.609,4S175.756,94.933,174.318,94.933Z" transform="translate(-170.666 -85.333)" fill="#ffc731"/>
        </g>
      </g>
      <g id="Group_29" data-name="Group 29" transform="translate(16.696 91.733)">
        <g id="Group_28" data-name="Group 28" transform="translate(0 0)">
          <path id="Path_4371" data-name="Path 4371" d="M343.943,170.667c-1.438,0-2.609,1.8-2.609,4s1.171,4,2.609,4,2.609-1.8,2.609-4S345.381,170.667,343.943,170.667Zm0,6.4c-.863,0-1.565-1.077-1.565-2.4s.7-2.4,1.565-2.4,1.565,1.077,1.565,2.4S344.806,177.067,343.943,177.067Z" transform="translate(-341.334 -170.667)" fill="#b9b9b9"/>
        </g>
      </g>
      <g id="Group_31" data-name="Group 31" transform="translate(2.161 91.733)">
        <g id="Group_30" data-name="Group 30" transform="translate(0 0)">
          <path id="Path_4372" data-name="Path 4372" d="M46.791,170.667c-1.439,0-2.609,1.8-2.609,4s1.171,4,2.609,4,2.609-1.8,2.609-4S48.23,170.667,46.791,170.667Zm0,6.4c-.863,0-1.565-1.077-1.565-2.4s.7-2.4,1.565-2.4,1.565,1.077,1.565,2.4S47.654,177.067,46.791,177.067Z" transform="translate(-44.182 -170.667)" fill="#b9b9b9"/>
        </g>
      </g>
      <g id="Group_33" data-name="Group 33" transform="translate(5.217 98.133)">
        <g id="Group_32" data-name="Group 32" transform="translate(0 0)">
          <path id="Path_4373" data-name="Path 4373" d="M113.449,256c-3.74,0-6.783,4.666-6.783,10.4,0,.442.234.8.522.8s.522-.358.522-.8c0-4.853,2.574-8.8,5.739-8.8s5.739,3.947,5.739,8.8c0,.442.234.8.522.8s.522-.358.522-.8C120.231,260.666,117.188,256,113.449,256Z" transform="translate(-106.666 -256)" fill="#ffc731"/>
        </g>
      </g>
    </g>
  </g>
</svg>
