<svg xmlns="http://www.w3.org/2000/svg" width="24" height="16.5" viewBox="0 0 24 16.5">
  <g id="credit-card_2_" data-name="credit-card (2)" transform="translate(0 -80)">
    <path id="Path_7133" data-name="Path 7133" d="M21.375,80H2.625A2.628,2.628,0,0,0,0,82.625v11.25A2.628,2.628,0,0,0,2.625,96.5h18.75A2.628,2.628,0,0,0,24,93.875V82.625A2.628,2.628,0,0,0,21.375,80ZM2.625,81.5h18.75A1.126,1.126,0,0,1,22.5,82.625v1.5H1.5v-1.5A1.126,1.126,0,0,1,2.625,81.5ZM21.375,95H2.625A1.126,1.126,0,0,1,1.5,93.875v-8.25h21v8.25A1.126,1.126,0,0,1,21.375,95Z" fill="#b9b9b9"/>
    <path id="Path_7134" data-name="Path 7134" d="M81.5,306.25h-.75a.75.75,0,0,1-.75-.75v-.75a.75.75,0,0,1,.75-.75h.75a.75.75,0,0,1,.75.75v.75A.75.75,0,0,1,81.5,306.25Z" transform="translate(-76.25 -213.5)" fill="#ffc731"/>
  </g>
</svg>
