<svg xmlns="http://www.w3.org/2000/svg" width="24" height="27.429" viewBox="0 0 24 27.429">
  <g id="exit-svgrepo-com" transform="translate(-420 -248)">
    <g id="Group_101" data-name="Group 101" transform="translate(420 248)">
      <g id="Group_100" data-name="Group 100" transform="translate(0)">
        <path id="Path_5015" data-name="Path 5015" d="M48.571,17.143a.572.572,0,0,0-.571.571v8a.572.572,0,0,1-.571.571H33.714a.572.572,0,0,1-.571-.571v-24a.572.572,0,0,1,.571-.571H47.429A.572.572,0,0,1,48,1.714v8a.571.571,0,0,0,1.143,0v-8A1.716,1.716,0,0,0,47.429,0H33.714A1.716,1.716,0,0,0,32,1.714v24a1.716,1.716,0,0,0,1.714,1.714H47.429a1.716,1.716,0,0,0,1.714-1.714v-8A.572.572,0,0,0,48.571,17.143Z" transform="translate(-32)" fill="#b9b9b9"/>
        <path id="Path_5016" data-name="Path 5016" d="M257.709,174.816l-4.571-4a.571.571,0,0,0-.947.43v1.714H245.9a.572.572,0,0,0-.571.571v3.429a.572.572,0,0,0,.571.571h6.286v1.714a.571.571,0,0,0,.947.43l4.571-4a.57.57,0,0,0,0-.859Zm-4.376,3.17V176.96a.572.572,0,0,0-.571-.571h-6.286V174.1h6.286a.572.572,0,0,0,.571-.571v-1.026l3.133,2.741Z" transform="translate(-233.904 -161.532)" fill="#ffc731"/>
      </g>
    </g>
  </g>
</svg>
