<svg xmlns="http://www.w3.org/2000/svg" width="24" height="19.103" viewBox="0 0 24 19.103">
  <g id="Group_166" data-name="Group 166" transform="translate(-1320 -423)">
    <path id="Path_5009" data-name="Path 5009" d="M7.038,99.318v-1.1H4.067V95.251h-1.1v2.971H0v1.1H2.971v2.971h1.1V99.318Z" transform="translate(1320 332.26)" fill="#ffc731"/>
    <path id="Path_5010" data-name="Path 5010" d="M90.085,185.941H81.791a5.055,5.055,0,0,0-5.05,5.05v2.917H95.134v-2.917A5.055,5.055,0,0,0,90.085,185.941Zm3.954,6.871h-16.2v-1.821a3.958,3.958,0,0,1,3.954-3.954h8.294a3.958,3.958,0,0,1,3.954,3.954v1.821Z" transform="translate(1248.865 248.195)" fill="#b9b9b9"/>
    <path id="Path_5011" data-name="Path 5011" d="M135.267,44.131a5.309,5.309,0,1,0-5.309-5.309A5.315,5.315,0,0,0,135.267,44.131Zm0-9.521a4.213,4.213,0,1,1-4.213,4.213A4.218,4.218,0,0,1,135.267,34.61Z" transform="translate(1199.537 389.486)" fill="#b9b9b9"/>
  </g>
</svg>
