<svg id="pie-chart_1_" data-name="pie-chart (1)" xmlns="http://www.w3.org/2000/svg" width="24" height="24" viewBox="0 0 24 24">
  <g id="Group_99" data-name="Group 99">
    <g id="Group_98" data-name="Group 98">
      <path id="Path_5012" data-name="Path 5012" d="M11,32.662V21.833a.5.5,0,0,0-.5-.5c-5.79,0-10.5,5.159-10.5,11.5a11.513,11.513,0,0,0,11.5,11.5,8.546,8.546,0,0,0,6.318-2.114.5.5,0,0,0,.077-.693Zm.5,10.671A10.512,10.512,0,0,1,1,32.833c0-5.6,3.993-10.2,9-10.486V32.833a.5.5,0,0,0,.106.307l6.7,8.609A7.567,7.567,0,0,1,11.5,43.333Z" transform="translate(0 -20.333)" fill="#797979"/>
      <path id="Path_5013" data-name="Path 5013" d="M256.5,12h11a.5.5,0,0,0,.5-.5A11.513,11.513,0,0,0,256.5,0a.5.5,0,0,0-.5.5v11A.5.5,0,0,0,256.5,12ZM257,1.012A10.514,10.514,0,0,1,266.988,11H257Z" transform="translate(-244)" fill="#b9b9b9"/>
      <path id="Path_5014" data-name="Path 5014" d="M287.822,277.333h-10a.5.5,0,0,0-.389.814l6.5,8.047a.5.5,0,0,0,.354.185h.035a.5.5,0,0,0,.341-.134,11.545,11.545,0,0,0,3.659-8.413A.5.5,0,0,0,287.822,277.333Zm-3.457,7.8-5.5-6.8h8.441A10.55,10.55,0,0,1,284.365,285.137Z" transform="translate(-264.322 -264.333)" fill="#ffc731"/>
    </g>
  </g>
</svg>
