<svg xmlns="http://www.w3.org/2000/svg" width="24" height="28.734" viewBox="0 0 24 28.734">
  <g id="briefing" transform="translate(-51.091)">
    <g id="Group_172" data-name="Group 172" transform="translate(51.091 6.663)">
      <g id="Group_171" data-name="Group 171" transform="translate(0)">
        <path id="Path_5148" data-name="Path 5148" d="M67.9,139.958H51.935V119.152a.422.422,0,1,0-.844,0V140.1a.7.7,0,0,0,.7.7H67.9a.422.422,0,0,0,0-.844Z" transform="translate(-51.091 -118.73)" fill="#b9b9b9"/>
      </g>
    </g>
    <g id="Group_174" data-name="Group 174" transform="translate(51.091)">
      <g id="Group_173" data-name="Group 173">
        <path id="Path_5149" data-name="Path 5149" d="M74.966,3.814,71.226.128A.45.45,0,0,0,70.91,0H51.824a.72.72,0,0,0-.733.7V3.992a.44.44,0,0,0,.88,0V.844H70.724l3.487,3.435V27.891H71.717a.422.422,0,1,0,0,.844h2.641a.719.719,0,0,0,.733-.7V4.108A.413.413,0,0,0,74.966,3.814Z" transform="translate(-51.091)" fill="#b9b9b9"/>
      </g>
    </g>
    <g id="Group_176" data-name="Group 176" transform="translate(70.663 0)">
      <g id="Group_175" data-name="Group 175" transform="translate(0)">
        <path id="Path_5150" data-name="Path 5150" d="M386.313,3.814,382.728.128A.422.422,0,0,0,382,.422V4.108a.422.422,0,0,0,.422.422h3.585a.422.422,0,0,0,.3-.716Zm-3.465-.128V1.461l2.165,2.226h-2.165Z" transform="translate(-382.004 -0.001)" fill="#b9b9b9"/>
      </g>
    </g>
    <g id="Group_178" data-name="Group 178" transform="translate(53.678 2.239)">
      <g id="Group_177" data-name="Group 177" transform="translate(0)">
        <path id="Path_5151" data-name="Path 5151" d="M108.054,39.9H97.892a.7.7,0,0,0-.7.7v2.331a.7.7,0,0,0,.7.7h10.162a.7.7,0,0,0,.7-.7V40.6A.7.7,0,0,0,108.054,39.9Zm-.141,2.893H98.033v-2.05h9.881Z" transform="translate(-97.189 -39.899)" fill="#ffc731"/>
      </g>
    </g>
    <g id="Group_180" data-name="Group 180" transform="translate(54.177 8.097)">
      <g id="Group_179" data-name="Group 179" transform="translate(0)">
        <path id="Path_5152" data-name="Path 5152" d="M109.792,144.366a.422.422,0,0,0-.591.081l-1.863,2.452-.56-.49a.422.422,0,1,0-.555.635l.9.787a.422.422,0,0,0,.278.1l.043,0a.422.422,0,0,0,.293-.164l2.137-2.812A.422.422,0,0,0,109.792,144.366Z" transform="translate(-106.079 -144.28)" fill="#ffc731"/>
      </g>
    </g>
    <g id="Group_182" data-name="Group 182" transform="translate(60.539 8.097)">
      <g id="Group_181" data-name="Group 181">
        <path id="Path_5153" data-name="Path 5153" d="M212.665,144.277H202.043a.422.422,0,1,0,0,.844h10.622a.422.422,0,1,0,0-.844Z" transform="translate(-201.621 -144.277)" fill="#ffc731"/>
      </g>
    </g>
    <g id="Group_184" data-name="Group 184" transform="translate(60.093 9.503)">
      <g id="Group_183" data-name="Group 183">
        <path id="Path_5154" data-name="Path 5154" d="M208.939,169.326h-6.9a.422.422,0,0,0,0,.844h6.9a.422.422,0,0,0,0-.844Z" transform="translate(-201.621 -169.326)" fill="#ffc731"/>
      </g>
    </g>
    <g id="Group_186" data-name="Group 186" transform="translate(60.156 10.909)">
      <g id="Group_185" data-name="Group 185">
        <path id="Path_5155" data-name="Path 5155" d="M210.514,194.376h-8.471a.422.422,0,0,0,0,.844h8.471a.422.422,0,0,0,0-.844Z" transform="translate(-201.621 -194.376)" fill="#ffc731"/>
      </g>
    </g>
    <g id="Group_188" data-name="Group 188" transform="translate(54.177 13.833)">
      <g id="Group_187" data-name="Group 187" transform="translate(0)">
        <path id="Path_5156" data-name="Path 5156" d="M109.792,246.568a.422.422,0,0,0-.591.081l-1.863,2.452-.56-.49a.422.422,0,1,0-.555.635l.9.787a.422.422,0,0,0,.278.1l.043,0a.422.422,0,0,0,.293-.164l2.137-2.812A.422.422,0,0,0,109.792,246.568Z" transform="translate(-106.079 -246.482)" fill="#ffc731"/>
      </g>
    </g>
    <g id="Group_190" data-name="Group 190" transform="translate(60.539 13.833)">
      <g id="Group_189" data-name="Group 189">
        <path id="Path_5157" data-name="Path 5157" d="M212.665,246.481H202.043a.422.422,0,0,0,0,.844h10.622a.422.422,0,0,0,0-.844Z" transform="translate(-201.621 -246.481)" fill="#ffc731"/>
      </g>
    </g>
    <g id="Group_192" data-name="Group 192" transform="translate(60.093 15.239)">
      <g id="Group_191" data-name="Group 191">
        <path id="Path_5158" data-name="Path 5158" d="M208.939,271.53h-6.9a.422.422,0,0,0,0,.844h6.9a.422.422,0,0,0,0-.844Z" transform="translate(-201.621 -271.53)" fill="#ffc731"/>
      </g>
    </g>
    <g id="Group_194" data-name="Group 194" transform="translate(60.156 16.645)">
      <g id="Group_193" data-name="Group 193">
        <path id="Path_5159" data-name="Path 5159" d="M210.514,296.579h-8.471a.422.422,0,0,0,0,.844h8.471a.422.422,0,0,0,0-.844Z" transform="translate(-201.621 -296.579)" fill="#ffc731"/>
      </g>
    </g>
    <g id="Group_196" data-name="Group 196" transform="translate(60.539 19.569)">
      <g id="Group_195" data-name="Group 195">
        <path id="Path_5160" data-name="Path 5160" d="M212.665,348.685H202.043a.422.422,0,1,0,0,.844h10.622a.422.422,0,0,0,0-.844Z" transform="translate(-201.621 -348.685)" fill="#ffc731"/>
      </g>
    </g>
    <g id="Group_198" data-name="Group 198" transform="translate(60.093 20.975)">
      <g id="Group_197" data-name="Group 197">
        <path id="Path_5161" data-name="Path 5161" d="M208.939,373.734h-6.9a.422.422,0,0,0,0,.844h6.9a.422.422,0,0,0,0-.844Z" transform="translate(-201.621 -373.734)" fill="#ffc731"/>
      </g>
    </g>
    <g id="Group_200" data-name="Group 200" transform="translate(60.156 22.38)">
      <g id="Group_199" data-name="Group 199">
        <path id="Path_5162" data-name="Path 5162" d="M210.514,398.783h-8.471a.422.422,0,1,0,0,.844h8.471a.422.422,0,0,0,0-.844Z" transform="translate(-201.621 -398.783)" fill="#ffc731"/>
      </g>
    </g>
    <g id="Group_202" data-name="Group 202" transform="translate(54.177 19.569)">
      <g id="Group_201" data-name="Group 201">
        <path id="Path_5163" data-name="Path 5163" d="M109.029,348.685H106.78a.7.7,0,0,0-.7.7v2.249a.7.7,0,0,0,.7.7h2.249a.7.7,0,0,0,.7-.7v-2.249A.7.7,0,0,0,109.029,348.685Zm-.141,2.812h-1.968v-1.968h1.968Z" transform="translate(-106.077 -348.685)" fill="#ffc731"/>
      </g>
    </g>
  </g>
</svg>
