<svg xmlns="http://www.w3.org/2000/svg" xmlns:xlink="http://www.w3.org/1999/xlink" width="368.896" height="266" viewBox="0 0 368.896 266">
  <defs>
    <linearGradient id="linear-gradient" x1="0.539" y1="-0.092" x2="0.39" y2="1.968" gradientUnits="objectBoundingBox">
      <stop offset="0" stop-color="#ffc444"/>
      <stop offset="1" stop-color="#f36f56"/>
    </linearGradient>
    <linearGradient id="linear-gradient-2" y1="0.5" x2="1" y2="0.5" gradientUnits="objectBoundingBox">
      <stop offset="0" stop-color="#ff9085"/>
      <stop offset="1" stop-color="#fb6fbb"/>
    </linearGradient>
    <clipPath id="clip-path">
      <path id="Path_5041" data-name="Path 5041" d="M2350.486,1684.344c-1.717-2.36-5.192-4.412-8.441-5.594-23.036-8.38-47.024,26.719-47.973,35.894s-4.812,11.115-25.9,9.71-16.745,9.432-17.169,14.877,1.8,10.824-14.505,11.445-13.238,4.977-13.238,4.977,14.492,26.3,16.51,19.887,9.672-14.709,32.6-8.605c9.872,2.629,26.647,3.735,34.237-2.842,1.767-1.532,3.83-4.064,4.282-6.064.629-2.775-.521-5.457-.431-8.221.2-6.44,9.908-8.275,16.276-10.7a68.582,68.582,0,0,0,9.63-4.279c6.138-3.52,7.608-8.835,6.16-14.225-.7-2.583-2.04-5.51-1.471-8.17.611-2.859,3.379-6.175,5.1-8.79a54.544,54.544,0,0,0,3.84-6.2C2351.9,1693.444,2353.355,1688.292,2350.486,1684.344Z" transform="translate(-2223.026 -1677.468)" fill="url(#linear-gradient)"/>
    </clipPath>
    <clipPath id="clip-path-2">
      <path id="Path_5048" data-name="Path 5048" d="M2134.117,1123.639c-3.686-2.39-9.388-3.787-14.246-4.165-34.443-2.682-42.062,49.775-37.347,61.665s1.1,15.661-26.4,21.1-15.034,17.62-12.055,24.63,9.257,13.03-10.911,19.392-13.483,10.8-13.483,10.8,35.223,28.2,33.639,19.424,2.714-21.85,35.542-22c14.139-.063,36-4.407,41.333-15.295,1.241-2.536,2.208-6.433,1.49-9.109-.995-3.714-4.172-6.7-5.842-10.217-3.9-8.189,7.161-13.824,13.622-19.062a68.048,68.048,0,0,0,9.388-8.689c5.47-6.538,3.9-13.745-1.4-20.045-2.54-3.019-6.119-6.245-7.117-9.794-1.073-3.811.279-8.946.767-12.825a58.826,58.826,0,0,0,.846-9.132C2141.766,1134.627,2140.281,1127.633,2134.117,1123.639Z" transform="translate(-2018.612 -1119.375)" fill="url(#linear-gradient-2)"/>
    </clipPath>
    <linearGradient id="linear-gradient-5" y1="0.5" x2="1" y2="0.5" gradientUnits="objectBoundingBox">
      <stop offset="0.49" stop-color="#ebeff2"/>
      <stop offset="1" stop-color="#fff"/>
    </linearGradient>
    <linearGradient id="linear-gradient-6" x1="1.152" y1="1.015" x2="0.811" y2="0.742" gradientUnits="objectBoundingBox">
      <stop offset="0" stop-color="#fff"/>
      <stop offset="1" stop-color="#ebeff2"/>
    </linearGradient>
    <linearGradient id="linear-gradient-7" x1="0.491" y1="0.736" x2="0.485" y2="0.908" xlink:href="#linear-gradient-6"/>
    <linearGradient id="linear-gradient-8" x1="0" y1="0.5" x2="1" y2="0.5" xlink:href="#linear-gradient-6"/>
    <clipPath id="clip-path-3">
      <path id="Path_5102" data-name="Path 5102" d="M1846.329,924.934,1717.586,924c-1.07-.007-2.046.6-2.046,1.363v78.51c0,.76,1.07,1.359,2.141,1.338l128.548-2.689a1.538,1.538,0,0,0,1.678-1.352v-74.91A1.414,1.414,0,0,0,1846.329,924.934Z" transform="translate(-1715.54 -923.999)" fill="none"/>
    </clipPath>
    <linearGradient id="linear-gradient-10" x1="-23.678" y1="13.304" x2="-22.712" y2="13.304" gradientUnits="objectBoundingBox">
      <stop offset="0" stop-color="#444b8c"/>
      <stop offset="1" stop-color="#464646"/>
    </linearGradient>
    <linearGradient id="linear-gradient-12" x1="10.623" y1="0.626" x2="9.696" y2="-0.037" gradientUnits="objectBoundingBox">
      <stop offset="0" stop-color="#464646"/>
      <stop offset="1" stop-color="#797979"/>
    </linearGradient>
    <linearGradient id="linear-gradient-13" x1="11.928" y1="0.641" x2="10.872" y2="-0.033" gradientUnits="objectBoundingBox">
      <stop offset="0" stop-color="#797979"/>
      <stop offset="1" stop-color="#5e5e5e"/>
    </linearGradient>
    <linearGradient id="linear-gradient-14" x1="-107.866" y1="-55.187" x2="-107.676" y2="-51.352" xlink:href="#linear-gradient"/>
    <linearGradient id="linear-gradient-15" x1="0.311" y1="0.451" x2="1.378" y2="0.451" gradientUnits="objectBoundingBox">
      <stop offset="0" stop-color="#893976"/>
      <stop offset="1" stop-color="#311944"/>
    </linearGradient>
    <linearGradient id="linear-gradient-16" x1="-1.365" y1="0.632" x2="-0.365" y2="0.632" xlink:href="#linear-gradient-15"/>
    <linearGradient id="linear-gradient-17" x1="-0.527" y1="0.5" x2="0.473" y2="0.5" xlink:href="#linear-gradient-15"/>
    <linearGradient id="linear-gradient-18" x1="-6.113" y1="1.548" x2="-6.617" y2="1.005" xlink:href="#linear-gradient-15"/>
    <linearGradient id="linear-gradient-19" x1="-7.297" y1="0.77" x2="-6.573" y2="1.538" xlink:href="#linear-gradient-15"/>
    <linearGradient id="linear-gradient-20" x1="-48.579" y1="-10.817" x2="-48.375" y2="-12.548" gradientUnits="objectBoundingBox">
      <stop offset="0" stop-color="#ffc444"/>
      <stop offset="1" stop-color="#ffbe9d"/>
    </linearGradient>
    <linearGradient id="linear-gradient-22" x1="0.239" y1="2.846" x2="0.605" y2="-0.259" gradientUnits="objectBoundingBox">
      <stop offset="0" stop-color="#444b8c"/>
      <stop offset="1" stop-color="#26264f"/>
    </linearGradient>
    <linearGradient id="linear-gradient-23" x1="0.438" y1="3.177" x2="0.516" y2="-0.32" gradientUnits="objectBoundingBox">
      <stop offset="0.1" stop-color="#311944"/>
      <stop offset="0.27" stop-color="#371b47"/>
      <stop offset="0.48" stop-color="#462150"/>
      <stop offset="0.72" stop-color="#612a5f"/>
      <stop offset="0.97" stop-color="#853774"/>
      <stop offset="1" stop-color="#893976"/>
    </linearGradient>
    <linearGradient id="linear-gradient-24" x1="0.988" y1="0.556" x2="18.356" y2="2.439" xlink:href="#linear-gradient-23"/>
    <linearGradient id="linear-gradient-25" x1="0.15" y1="2.888" x2="0.631" y2="-0.295" xlink:href="#linear-gradient-22"/>
    <linearGradient id="linear-gradient-26" x1="0.885" y1="7.135" x2="-0.953" y2="-22.46" gradientUnits="objectBoundingBox">
      <stop offset="0.1" stop-color="#311944"/>
      <stop offset="0.69" stop-color="#6d2f66"/>
      <stop offset="1" stop-color="#893976"/>
    </linearGradient>
    <linearGradient id="linear-gradient-27" x1="2.507" y1="0.836" x2="-0.59" y2="0.309" gradientUnits="objectBoundingBox">
      <stop offset="0" stop-color="#311944"/>
      <stop offset="1" stop-color="#893976"/>
    </linearGradient>
    <linearGradient id="linear-gradient-28" x1="-0.722" y1="0.099" x2="0.536" y2="0.581" xlink:href="#linear-gradient-27"/>
    <linearGradient id="linear-gradient-29" x1="0.437" y1="-0.479" x2="0.53" y2="0.935" xlink:href="#linear-gradient-26"/>
    <linearGradient id="linear-gradient-30" x1="0.203" y1="0.325" x2="0.951" y2="0.917" xlink:href="#linear-gradient-27"/>
    <linearGradient id="linear-gradient-31" x1="0.152" y1="0.495" x2="0.441" y2="0.472" xlink:href="#linear-gradient-26"/>
    <linearGradient id="linear-gradient-32" x1="0.592" y1="2.528" x2="0.488" y2="0.167" xlink:href="#linear-gradient-23"/>
    <linearGradient id="linear-gradient-33" x1="0.642" y1="3.142" x2="0.466" y2="-0.185" xlink:href="#linear-gradient-27"/>
    <linearGradient id="linear-gradient-34" x1="2.625" y1="1.517" x2="-0.622" y2="-0.008" xlink:href="#linear-gradient"/>
    <linearGradient id="linear-gradient-35" x1="-0.331" y1="0.234" x2="2.969" y2="1.286" xlink:href="#linear-gradient"/>
  </defs>
  <g id="Wavy_Bus-44_Single-01_Converted_" data-name="Wavy_Bus-44_Single-01 [Converted]" transform="translate(-123.051 59.743)">
    <g id="Illustration" transform="translate(123.051 -59.743)">
      <path id="Path_5034" data-name="Path 5034" d="M690.849,460.676c-27.59-4.485-56.275-6.634-84.321-5.264-24.858,1.214-53.031,4.531-73.04,16.406-9.533,5.657-20.9,15.824-24.02,24.795,0,0-16.414,47.215-49.24,57.327S404.606,736.705,653.542,719.845c0,0,146.211-4.418,155.015-131.681,2.127-30.743.939-64.539-24.538-90.245-19.523-19.7-46.876-28.457-78.31-34.587Q698.342,461.9,690.849,460.676Z" transform="translate(-440.371 -455.003)" fill="#f4f7fa"/>
      <path id="Path_5035" data-name="Path 5035" d="M2350.486,1684.344c-1.717-2.36-5.192-4.412-8.441-5.594-23.036-8.38-47.024,26.719-47.973,35.894s-4.812,11.115-25.9,9.71-16.745,9.432-17.169,14.877,1.8,10.824-14.505,11.445-13.238,4.977-13.238,4.977,14.492,26.3,16.51,19.887,9.672-14.709,32.6-8.605c9.872,2.629,26.647,3.735,34.237-2.842,1.767-1.532,3.83-4.064,4.282-6.064.629-2.775-.521-5.457-.431-8.221.2-6.44,9.908-8.275,16.276-10.7a68.582,68.582,0,0,0,9.63-4.279c6.138-3.52,7.608-8.835,6.16-14.225-.7-2.583-2.04-5.51-1.471-8.17.611-2.859,3.379-6.175,5.1-8.79a54.544,54.544,0,0,0,3.84-6.2C2351.9,1693.444,2353.355,1688.292,2350.486,1684.344Z" transform="translate(-1990.593 -1561.334)" fill="url(#linear-gradient)"/>
      <g id="Group_141" data-name="Group 141" transform="translate(232.433 116.134)" clip-path="url(#clip-path)">
        <g id="Group_140" data-name="Group 140" transform="translate(-8.081 -2.951)" opacity="0.8">
          <path id="Path_5036" data-name="Path 5036" d="M2161.415,1737.455c-.2-.005-.363-.123-.366-.27s.149-.27.351-.281a246.342,246.342,0,0,0,28.6-3.99c14.367-2.875,34.042-8.306,46.182-17.855,10.14-7.975,23.349-22.23,36.248-39.108,11.562-15.135,18.645-26.773,18.8-29.281.01-.153.188-.271.4-.263s.372.137.361.29c-.19,2.932-8.49,15.9-18.9,29.523-12.923,16.916-26.173,31.209-36.351,39.216-12.264,9.646-32.084,15.12-46.548,18.014a245.827,245.827,0,0,1-28.722,4.008Z" transform="translate(-2161.05 -1646.406)" fill="#fff"/>
          <path id="Path_5037" data-name="Path 5037" d="M2943.941,1720.421a.427.427,0,0,1-.272-.077.22.22,0,0,1-.1-.2c.01-.2,1.01-20.222-8.176-27.578a.224.224,0,0,1-.089-.272.356.356,0,0,1,.284-.188.466.466,0,0,1,.364.091c9.4,7.523,8.423,27.136,8.377,27.968a.252.252,0,0,1-.122.188.466.466,0,0,1-.27.067Z" transform="translate(-2834.338 -1687.76)" fill="#fff"/>
          <path id="Path_5038" data-name="Path 5038" d="M2878.46,2152.086a.352.352,0,0,1-.359-.241c-.023-.133.09-.26.266-.3a159.988,159.988,0,0,1,18.7-2.793c13.365-1.14,22.388.136,26.814,3.795a.228.228,0,0,1-.034.39.484.484,0,0,1-.535-.024c-10.186-8.417-44.383-.915-44.723-.838A.5.5,0,0,1,2878.46,2152.086Z" transform="translate(-2784.605 -2100.664)" fill="#fff"/>
          <path id="Path_5039" data-name="Path 5039" d="M2481.925,2154.6a.536.536,0,0,1-.123-.021c-.2-.057-.29-.217-.213-.359a85.585,85.585,0,0,0,6.4-16.055c2.121-7.779,3.188-18-3.781-22.534a.228.228,0,0,1-.031-.391.487.487,0,0,1,.536-.023c5.813,3.779,7.171,11.538,4.02,23.062a86.156,86.156,0,0,1-6.437,16.145A.408.408,0,0,1,2481.925,2154.6Z" transform="translate(-2439.772 -2070.619)" fill="#fff"/>
          <path id="Path_5040" data-name="Path 5040" d="M2645.515,2410.059a.349.349,0,0,1-.356-.25c-.018-.136.1-.261.283-.3,1.474-.267,36.239-6.51,45.861-2.012.177.083.228.254.115.382a.469.469,0,0,1-.524.084c-9.349-4.37-44.91,2.02-45.267,2.091A.575.575,0,0,1,2645.515,2410.059Z" transform="translate(-2582.036 -2333.726)" fill="#fff"/>
        </g>
      </g>
      <path id="Path_5042" data-name="Path 5042" d="M2134.117,1123.639c-3.686-2.39-9.388-3.787-14.246-4.165-34.443-2.682-42.062,49.775-37.347,61.665s1.1,15.661-26.4,21.1-15.034,17.62-12.055,24.63,9.257,13.03-10.911,19.392-13.483,10.8-13.483,10.8,35.223,28.2,33.639,19.424,2.714-21.85,35.542-22c14.139-.063,36-4.407,41.333-15.295,1.241-2.536,2.208-6.433,1.49-9.109-.995-3.714-4.172-6.7-5.842-10.217-3.9-8.189,7.161-13.824,13.622-19.062a68.048,68.048,0,0,0,9.388-8.689c5.47-6.538,3.9-13.745-1.4-20.045-2.54-3.019-6.119-6.245-7.117-9.794-1.073-3.811.279-8.946.767-12.825a58.826,58.826,0,0,0,.846-9.132C2141.766,1134.627,2140.281,1127.633,2134.117,1123.639Z" transform="translate(-1812.832 -1056.26)" fill="url(#linear-gradient-2)"/>
      <g id="Group_143" data-name="Group 143" transform="translate(205.781 63.115)" clip-path="url(#clip-path-2)">
        <g id="Group_142" data-name="Group 142" transform="translate(-3.222 -6.445)" opacity="0.8">
          <path id="Path_5043" data-name="Path 5043" d="M1994.566,1210.892a.58.58,0,0,1-.629-.218c-.1-.182.012-.388.253-.473a278.154,278.154,0,0,0,33.484-14.82c16.261-8.541,37.565-22.119,46.714-38.311,7.643-13.523,15.11-36.013,20.49-61.7,4.824-23.037,6.246-40.131,4.833-43.348-.085-.2.063-.405.331-.468a.568.568,0,0,1,.643.242c1.649,3.763-.457,22.953-4.8,43.687-5.391,25.745-12.883,48.3-20.555,61.876-9.245,16.357-30.7,30.04-47.07,38.638a279.481,279.481,0,0,1-33.626,14.88Z" transform="translate(-1993.901 -1051.532)" fill="#fff"/>
          <path id="Path_5044" data-name="Path 5044" d="M2573.08,1247.377a.567.567,0,0,1-.641-.238c-.115-.257-11.758-25.848-28.078-31.978-.252-.094-.353-.32-.223-.5a.617.617,0,0,1,.691-.162c16.689,6.27,28.1,31.343,28.581,32.408a.279.279,0,0,1-.029.283.5.5,0,0,1-.3.184Z" transform="translate(-2472.345 -1198.978)" fill="#fff"/>
          <path id="Path_5045" data-name="Path 5045" d="M2702.575,1708.855a.6.6,0,0,1-.6-.183.312.312,0,0,1,.14-.467,178.735,178.735,0,0,1,21.774-9.921c16.116-6.01,28.313-7.487,36.248-4.39.248.1.342.322.209.5a.62.62,0,0,1-.693.153c-18.264-7.125-56.543,14.031-56.927,14.25A.609.609,0,0,1,2702.575,1708.855Z" transform="translate(-2609.597 -1631.444)" fill="#fff"/>
          <path id="Path_5046" data-name="Path 5046" d="M2217.641,2002.423a.637.637,0,0,1-.165.018c-.283,0-.507-.174-.5-.38a104.372,104.372,0,0,0-2.278-22.429c-2.339-10.534-7.585-23.788-19.3-27.116-.255-.079-.377-.29-.278-.478a.585.585,0,0,1,.649-.215c9.762,2.775,16.469,12.094,19.932,27.7a104.868,104.868,0,0,1,2.29,22.554A.409.409,0,0,1,2217.641,2002.423Z" transform="translate(-2168.856 -1866.274)" fill="#fff"/>
          <path id="Path_5047" data-name="Path 5047" d="M2531.926,2124.456a.6.6,0,0,1-.628-.189.322.322,0,0,1,.183-.477c1.688-.842,41.493-20.608,56.521-18.229.27.047.438.242.379.44a.53.53,0,0,1-.6.287c-14.6-2.31-55.316,17.912-55.726,18.117A.564.564,0,0,1,2531.926,2124.456Z" transform="translate(-2461.184 -2005.248)" fill="#fff"/>
        </g>
      </g>
      <path id="Path_5049" data-name="Path 5049" d="M1104.137,2703.061,781.76,2701v6.109a3.56,3.56,0,0,0,3.311,3.319l91.158,12.028a16.944,16.944,0,0,0,3.271.113l221.135-13.714a3.5,3.5,0,0,0,3.5-3.24Z" transform="translate(-737.247 -2487.63)" fill="#abc"/>
      <path id="Path_5050" data-name="Path 5050" d="M965.661,1554.144l-202.055,11.175c-3.616.2-6.556-1.925-6.556-4.75V1447.528c0-2.821,2.94-5.108,6.556-5.108H965.661c2.978,0,5.386,2.067,5.386,4.618v102.189C971.046,1551.777,968.638,1553.979,965.661,1554.144Z" transform="translate(-715.759 -1348.615)" fill="#abc"/>
      <path id="Path_5051" data-name="Path 5051" d="M990.334,1554.144l-202.058,11.175c-3.615.2-6.556-1.925-6.556-4.75V1447.528c0-2.821,2.94-5.108,6.556-5.108H990.334c2.979,0,5.388,2.067,5.388,4.618v102.189C995.72,1551.777,993.313,1553.979,990.334,1554.144Z" transform="translate(-737.213 -1348.615)" fill="#fff"/>
      <path id="Path_5052" data-name="Path 5052" d="M1042.7,1609.456,854.5,1619.163c-2.942.151-5.333-1.592-5.333-3.894V1516.3c0-2.3,2.391-4.18,5.333-4.187l188.193-.61c2.456-.008,4.445,1.686,4.445,3.784v90.144C1047.14,1607.525,1045.152,1609.329,1042.7,1609.456Z" transform="translate(-795.868 -1411.133)" fill="#bfc8d6"/>
      <path id="Path_5053" data-name="Path 5053" d="M1630.555,1456.908a2.375,2.375,0,1,1-2.325-1.9A2.156,2.156,0,0,1,1630.555,1456.908Z" transform="translate(-1471.324 -1360.009)" fill="#fff"/>
      <path id="Path_5054" data-name="Path 5054" d="M941.688,1523.193c-15.577-6.555-27.824,1.752-39.637-6.447-7.171-4.972-3.651-8.679-12.466-16.109-9.766-8.229-16.125-5.462-25.939-12.868-12.41-9.364-6.2-16.649-16.894-23.37-12.968-8.156-26.954-.607-39.3-8.429a23.015,23.015,0,0,1-9.771-13.49H785.6c-2.118,0-3.836,1.342-3.836,3v117.174c0,1.656,1.719,2.9,3.836,2.785L991.521,1554a3.525,3.525,0,0,0,2.478-1.187c-15.075-.43-24.335-4.386-30.256-8.473C952.167,1536.34,954.176,1528.452,941.688,1523.193Z" transform="translate(-737.247 -1348.67)" fill="#fff" opacity="0.48"/>
      <path id="Path_5055" data-name="Path 5055" d="M998.422,2612.821,781.76,2624.585l94.469,12.465a17.041,17.041,0,0,0,3.271.112l224.637-13.932L1001.869,2612.9a22.39,22.39,0,0,0-3.446-.084Z" transform="translate(-737.247 -2407.8)" fill="url(#linear-gradient-5)"/>
      <path id="Path_5056" data-name="Path 5056" d="M1024.23,2645.368l180.377-9.939,55.826,5.594-178.825,10.624Z" transform="translate(-948.103 -2428.288)" fill="#d8dee8"/>
      <path id="Path_5057" data-name="Path 5057" d="M1022.58,1081.35v147.868c0,2.482,3.028,4.35,6.621,4.174l152.175-7.476c3.228-.159,6.1-2.185,6.1-4.532v-139.7Z" transform="translate(-946.668 -1021.847)" fill="#eaedf3"/>
      <path id="Path_5058" data-name="Path 5058" d="M1181.43,977.868l-152.124-.819c-3.593-.019-6.725,1.976-6.725,4.458v5.451l164.894.338v-5.15C1187.474,979.8,1184.656,977.886,1181.43,977.868Z" transform="translate(-946.668 -927.454)" fill="#d8dee8"/>
      <path id="Path_5059" data-name="Path 5059" d="M1050.3,1081.4v147.692c0,2.478,3.017,4.344,6.6,4.168l151.336-7.458c3.22-.158,5.606-2.185,5.606-4.526v-139.54Z" transform="translate(-970.774 -1021.892)" fill="url(#linear-gradient-6)"/>
      <path id="Path_5060" data-name="Path 5060" d="M1095.34,1081.54v144.32c0,1.442,1.686,2.531,3.769,2.432l146.662-6.964c1.882-.089,3.62-1.27,3.62-2.637V1081.857Z" transform="translate(-1009.941 -1022.019)" fill="url(#linear-gradient-7)"/>
      <path id="Path_5061" data-name="Path 5061" d="M1291.467,1215.82l-135.154.321c-1.127,0-2.063.637-2.063,1.417v80.515c0,.78.9,1.384,2.026,1.35l135.2-4.131c1.025-.031,1.921-.659,1.921-1.4v-76.728C1293.393,1216.419,1292.49,1215.818,1291.467,1215.82Z" transform="translate(-1061.17 -1143.543)" fill="#d8dee8"/>
      <path id="Path_5062" data-name="Path 5062" d="M1208.3,978.045l-151.524-.817c-3.586-.02-6.463,1.973-6.463,4.452v5.444l163.538.335v-5.144C1213.847,979.974,1211.516,978.062,1208.3,978.045Z" transform="translate(-970.783 -927.617)" fill="#bfc8d6"/>
      <path id="Path_5063" data-name="Path 5063" d="M1215.689,2262.016l-61.439,2.384v-7.062l61.439-2.237Z" transform="translate(-1061.17 -2084.091)" fill="#d8dee8"/>
      <path id="Path_5064" data-name="Path 5064" d="M1262.22,2348.722l-107.97,4.48v-4.238l107.97-4.324Z" transform="translate(-1061.17 -2165.124)" fill="#d8dee8"/>
      <path id="Path_5065" data-name="Path 5065" d="M1262.22,2423.922l-107.97,4.751v-4.237l107.97-4.6Z" transform="translate(-1061.17 -2233.18)" fill="#d8dee8"/>
      <path id="Path_5066" data-name="Path 5066" d="M1101.367,1008.843c0,1.17-1.372,2.115-3.065,2.11s-3.072-.96-3.072-2.133,1.377-2.118,3.072-2.11S1101.367,1007.672,1101.367,1008.843Z" transform="translate(-1009.845 -954.297)" fill="#fff"/>
      <path id="Path_5067" data-name="Path 5067" d="M1179.706,1009.315c0,1.167-1.362,2.107-3.045,2.1s-3.051-.957-3.051-2.125,1.366-2.11,3.051-2.1S1179.706,1008.148,1179.706,1009.315Z" transform="translate(-1078.006 -954.732)" fill="#fff"/>
      <path id="Path_5068" data-name="Path 5068" d="M1257.5,1009.773c0,1.162-1.353,2.1-3.024,2.09s-3.03-.95-3.03-2.117,1.357-2.1,3.03-2.1S1257.5,1008.606,1257.5,1009.773Z" transform="translate(-1145.697 -955.148)" fill="#fff"/>
      <path id="Path_5069" data-name="Path 5069" d="M1299.77,949.19v146.068c0,2.451,2.979,4.31,6.485,4.153l148.262-6.66c3.153-.143,5.628-2.136,5.628-4.453V950.205Z" transform="translate(-1187.716 -902.242)" fill="#eaedf3"/>
      <path id="Path_5070" data-name="Path 5070" d="M1454.618,847.862l-148.394-1.437c-3.507-.034-6.413,1.926-6.413,4.378v5.384l160.375,1.015v-5.091C1460.18,849.8,1457.77,847.892,1454.618,847.862Z" transform="translate(-1187.751 -809.24)" fill="#d8dee8"/>
      <path id="Path_5071" data-name="Path 5071" d="M1327.49,949.4v145.9c0,2.448,2.924,4.305,6.423,4.149l148.127-6.65c3.147-.14,5.825-2.132,5.825-4.447V950.418Z" transform="translate(-1211.822 -902.432)" fill="#fff"/>
      <path id="Path_5072" data-name="Path 5072" d="M1372.53,949.81v142.567c0,1.425,1.554,2.508,3.59,2.42l142.809-6.183c1.838-.08,3.129-1.24,3.129-2.592V950.757Z" transform="translate(-1250.989 -902.803)" fill="url(#linear-gradient-8)"/>
      <path id="Path_5073" data-name="Path 5073" d="M1561.607,1086.444l-131.8-.254c-1.1,0-1.836.62-1.836,1.391v79.541c0,.77.923,1.372,2.022,1.343l131.6-3.465a1.333,1.333,0,0,0,1.455-1.379v-75.842A1.276,1.276,0,0,0,1561.607,1086.444Z" transform="translate(-1299.201 -1026.227)" fill="#d8dee8"/>
      <path id="Path_5074" data-name="Path 5074" d="M1482.107,848.21l-148.119-1.435c-3.5-.034-6.469,1.923-6.469,4.37v5.379l160.375,1.017v-5.085C1487.891,850.143,1485.253,848.241,1482.107,848.21Z" transform="translate(-1211.848 -809.557)" fill="#bfc8d6"/>
      <path id="Path_5075" data-name="Path 5075" d="M1488.053,2119.293l-60.083,2.068v-6.976l60.083-1.926Z" transform="translate(-1299.201 -1955.001)" fill="#d8dee8"/>
      <path id="Path_5076" data-name="Path 5076" d="M1533.682,2207.265l-105.712,3.919V2207l105.712-3.769Z" transform="translate(-1299.201 -2037.148)" fill="#d8dee8"/>
      <path id="Path_5077" data-name="Path 5077" d="M1533.682,2281.586l-105.712,4.185v-4.187l105.712-4.034Z" transform="translate(-1299.201 -2104.408)" fill="#d8dee8"/>
      <path id="Path_5078" data-name="Path 5078" d="M1377,878.108c0,1.156-1.339,2.084-3,2.071s-3-.961-3-2.12,1.343-2.085,3-2.071S1377,876.952,1377,878.108Z" transform="translate(-1249.659 -835.995)" fill="#fff"/>
      <path id="Path_5079" data-name="Path 5079" d="M1453.488,879.02c0,1.153-1.328,2.077-2.97,2.065s-2.978-.958-2.978-2.112,1.334-2.079,2.978-2.064S1453.488,877.867,1453.488,879.02Z" transform="translate(-1316.219 -836.827)" fill="#fff"/>
      <path id="Path_5080" data-name="Path 5080" d="M1529.42,879.953c0,1.149-1.321,2.07-2.952,2.058s-2.957-.95-2.957-2.105,1.325-2.071,2.957-2.057S1529.42,878.8,1529.42,879.953Z" transform="translate(-1382.283 -837.678)" fill="#fff"/>
      <path id="Path_5081" data-name="Path 5081" d="M1750.137,785.946V922.337c0,2.29-2.176,4.242-5.254,4.363l-144.509,5.7c-3.418.135-6.094-1.716-6.094-4.136V784.1Z" transform="translate(-1443.827 -752.836)" fill="#eaedf3"/>
      <path id="Path_5082" data-name="Path 5082" d="M1750.137,689.421v5.028L1594.28,692.6v-5.314c0-2.421,2.738-4.342,6.159-4.289l144.468,2.2C1747.984,685.243,1750.137,687.132,1750.137,689.421Z" transform="translate(-1443.827 -661.339)" fill="#d8dee8"/>
      <path id="Path_5083" data-name="Path 5083" d="M1777.857,786.371V922.6c0,2.287-2.442,4.237-5.513,4.359l-144.216,5.687c-3.409.134-6.128-1.71-6.128-4.132V784.52Z" transform="translate(-1467.932 -753.216)" fill="#fff"/>
      <path id="Path_5084" data-name="Path 5084" d="M1663.57,785.17V925.887c0,1.406,1.553,2.485,3.535,2.41l139.273-5.26c1.793-.068,3.111-1.2,3.111-2.539V786.9Z" transform="translate(-1504.082 -753.804)" fill="url(#linear-gradient-8)"/>
      <path id="Path_5085" data-name="Path 5085" d="M1846.329,921.329l-128.744-.95c-1.07-.009-2.046.6-2.046,1.362v78.51c0,.76,1.07,1.36,2.141,1.338l128.548-2.672a1.538,1.538,0,0,0,1.678-1.352v-74.91A1.413,1.413,0,0,0,1846.329,921.329Z" transform="translate(-1549.276 -876.168)" fill="#d8dee8"/>
      <path id="Path_5086" data-name="Path 5086" d="M1777.857,689.955v5.028L1622,693.133v-5.309c0-2.418,2.683-4.335,6.093-4.284l144.242,2.192C1775.4,685.778,1777.857,687.668,1777.857,689.955Z" transform="translate(-1467.932 -661.828)" fill="#bfc8d6"/>
      <path id="Path_5087" data-name="Path 5087" d="M1774.27,1943.567l-58.73,1.7v-6.887l58.73-1.556Z" transform="translate(-1549.276 -1796.047)" fill="#d8dee8"/>
      <path id="Path_5088" data-name="Path 5088" d="M1818.994,2033.224l-103.454,3.254v-4.133l103.454-3.105Z" transform="translate(-1549.276 -1879.688)" fill="#d8dee8"/>
      <path id="Path_5089" data-name="Path 5089" d="M1818.994,2106.624l-103.454,3.512v-4.131l103.454-3.365Z" transform="translate(-1549.276 -1946.114)" fill="#d8dee8"/>
      <path id="Path_5090" data-name="Path 5090" d="M1668.536,714.6c0,1.14-1.3,2.05-2.915,2.029s-2.92-.964-2.92-2.108,1.3-2.051,2.92-2.029S1668.536,713.462,1668.536,714.6Z" transform="translate(-1503.326 -688.034)" fill="#fff"/>
      <path id="Path_5091" data-name="Path 5091" d="M1743.017,716.084a1.835,1.835,0,0,1-.863,1.456,3.443,3.443,0,0,1-2.033.567c-1.6-.021-2.9-.961-2.9-2.1a1.841,1.841,0,0,1,.867-1.454,3.451,3.451,0,0,1,2.034-.564C1741.721,714.006,1743.017,714.946,1743.017,716.084Z" transform="translate(-1568.129 -689.383)" fill="#fff"/>
      <path id="Path_5092" data-name="Path 5092" d="M1817,717.518a1.822,1.822,0,0,1-.855,1.45,3.427,3.427,0,0,1-2.022.566c-1.591-.021-2.881-.958-2.881-2.09a1.823,1.823,0,0,1,.857-1.451,3.426,3.426,0,0,1,2.024-.564C1815.711,715.447,1817,716.384,1817,717.518Z" transform="translate(-1632.498 -690.687)" fill="#fff"/>
      <g id="Group_144" data-name="Group 144" transform="translate(166.264 44.555)" clip-path="url(#clip-path-3)">
        <path id="Path_5093" data-name="Path 5093" d="M1874.118,1534.234c-.586-6.175-6.111-11.426-14.06-13.329-41.644-9.967-77.958-2.808-97.157,2.9-8.539,2.537-14.219,8.511-14.308,15.085l-.233,16.763,127.471-3.316Z" transform="translate(-1744.081 -1459.698)" fill="#b9b9b9"/>
        <path id="Path_5094" data-name="Path 5094" d="M2102.75,1298.506l-2.1,11.562c-.608,7.351-10.481,10.384-10.481,10.384,11.584,9.773,33.467,8.665,41.04-1.061-5.229-1.306-11.113-7.168-11.344-11.369l-.531-9.753Z" transform="translate(-2041.325 -1262.714)" fill="#ffc3bd"/>
        <path id="Path_5095" data-name="Path 5095" d="M2156.654,1048.905c0,9.621-7.8,20.12-17.53,20.321-9.854.2-17.934-10.2-17.934-20.044s8.084-15.211,17.934-15.193C2148.854,1034,2156.654,1039.281,2156.654,1048.905Z" transform="translate(-2068.299 -1023.54)" fill="#ffc3bd"/>
        <path id="Path_5096" data-name="Path 5096" d="M2081.946,985.631l2.98-.373c-.457-.8-2.338-4.354,0-7.487,2.24-3,7.5-4.465,11.5-4.275,4.532.215,7.245,1.752,9.508.552a3.653,3.653,0,0,0,1.826-2.842,7.2,7.2,0,0,0,.913,2.5c1.677,2.844,4.511,3.426,6.052,5.3,1.035,1.26,1.709,3.373,0,7.118l2.556-.138a40.929,40.929,0,0,0,2.646-8.71c.992-5.392,1.676-9.1-1.145-10.914-.562-.362-3.053-1.8-9.034-.475a22.562,22.562,0,0,0-8.949-4.122c-1.586-.362-9.478-2.135-16.519,1.572-4.81,2.532-8.591,7.289-7.374,11.231.642,2.084,2.4,3.014,3.944,7.035A20.571,20.571,0,0,1,2081.946,985.631Z" transform="translate(-2029.591 -957.503)" fill="#797979"/>
        <path id="Path_5097" data-name="Path 5097" d="M2374.6,1191.83s1.12-4.227,4.514-3.835-1.465,7.335-4.514,8.2Z" transform="translate(-2288.668 -1162.892)" fill="#ffc3bd"/>
        <path id="Path_5098" data-name="Path 5098" d="M2098.742,1194.961s-1.167-4.295-4.723-3.841,1.54,7.489,4.723,8.3Z" transform="translate(-2043.617 -1165.712)" fill="#ffc3bd"/>
        <path id="Path_5099" data-name="Path 5099" d="M2131.2,1520.66l-14.059,22.308-6.306,10-6.089-9.209-14.582-22.041a85.252,85.252,0,0,0,15.477,1.732,99.148,99.148,0,0,0,10.376-.313A88.268,88.268,0,0,0,2131.2,1520.66Z" transform="translate(-2041.324 -1463.977)" fill="#fff"/>
        <path id="Path_5100" data-name="Path 5100" d="M2214.842,1616.979l-6.391,10-6.13-9.21,3.652-15.062,6.064-.268v0Z" transform="translate(-2138.851 -1537.988)" fill="#ffc731"/>
        <path id="Path_5101" data-name="Path 5101" d="M2207.79,1543.789l2.748,5.532,5.856-.09,2.018-5.781Z" transform="translate(-2143.608 -1484.602)" fill="#ffc731"/>
      </g>
      <path id="Path_5103" data-name="Path 5103" d="M1732.643,820.169a57.846,57.846,0,0,0-.666,10.939,41.093,41.093,0,0,0,.435,4.6L1600.531,840.9c-3.418.135-6.251-1.716-6.251-4.135V687.289c0-2.421,2.738-4.342,6.159-4.289l9.185.138a27.3,27.3,0,0,1,4.514,3.143,24.024,24.024,0,0,1,3.277,3.454,23.047,23.047,0,0,1,2.055,3.163,27.968,27.968,0,0,1,3.129,12.725c.025.988.017,2.009-.035,3.072-1.445,29.152,2.4,46.024,46.371,53.985,25.511,4.621,45.42,9.8,56.016,21.739C1732.132,792.5,1735.1,803.751,1732.643,820.169Z" transform="translate(-1439.834 -661.878)" fill="#fff" opacity="0.3"/>
      <path id="Path_5104" data-name="Path 5104" d="M1335.706,1565.151l-.161,2.327s3.275,1.392,7.988,3.093c8.826,5.541,22.128,12,29.831,6.626,6.139-4.275,7.546-9.785,7.422-14.227a20.709,20.709,0,0,0-1.769-7.782l-7.141,1.4c-10.805-15.261-33.65-27.724-33.65-27.724l-1.59,22.908-.853,12.318-1.132.239S1335.027,1564.633,1335.706,1565.151Z" transform="translate(-1218.048 -1426.844)" fill="#797979"/>
      <path id="Path_5105" data-name="Path 5105" d="M1335.75,1782.4l-.162,2.326s3.275,1.392,7.988,3.093c8.826,5.541,22.128,12,29.831,6.626,6.139-4.275,7.545-9.785,7.421-14.228-.938-2.621-3.284-4.23-7.421-3.981,0,0-6.441-1.163-14.343,3.742s-5.934-8.858-18.7-10.887a12.307,12.307,0,0,0-3.678-.075l-.853,12.318-1.132.239S1335.07,1781.881,1335.75,1782.4Z" transform="translate(-1218.092 -1644.092)" fill="#b9b9b9" opacity="0.2"/>
      <path id="Path_5106" data-name="Path 5106" d="M1014.027,3127.94c-.685.459-.729,1.531-.757,2.233a1.26,1.26,0,0,0,.038.577c.415.787,2.558.777,5.927.877,5.325.159,6.925.393,7.292-.2.343-.555-.67-1.393-.782-1.486a5.732,5.732,0,0,0-2.7-.917c-2.546-.49-4.261-.742-4.78-.819C1015.019,3127.725,1014.477,3127.64,1014.027,3127.94Z" transform="translate(-938.565 -2873.853)" fill="url(#linear-gradient-10)"/>
      <path id="Path_5107" data-name="Path 5107" d="M1019.6,3088.89l.207,4.416a4.311,4.311,0,0,1-3.39.172l-1.043-4.369Z" transform="translate(-940.398 -2838.671)" fill="#ffc731"/>
      <path id="Path_5108" data-name="Path 5108" d="M1357.17,3117.9a1.756,1.756,0,0,0-.5,2.595c.707.66,1.838.228,4.985.42,3.37.2,4.209.819,6.536.447.94-.15,2.608-.54,2.608-1.022,0-.34-.816-.549-3.551-1.335a44.749,44.749,0,0,0-4.694-1.3C1360.476,3117.363,1358.38,3117.027,1357.17,3117.9Z" transform="translate(-1236.855 -2864.422)" fill="url(#linear-gradient-10)"/>
      <path id="Path_5109" data-name="Path 5109" d="M1354.077,3081.84l1.393,4.17a4.242,4.242,0,0,1-3.363.359l-2.217-4.085Z" transform="translate(-1231.301 -2832.291)" fill="#ffc731"/>
      <path id="Path_5110" data-name="Path 5110" d="M1114.69,2129.69a283.684,283.684,0,0,0,10,91.712l-6.574,1.018c-5.206-3.935-11.69-10.07-14.419-18.478-1.7-5.225-.809-7.835-1.66-14.209-1.353-10.15-5.2-15.588-8.985-23.877a102.746,102.746,0,0,1-8.708-32.743Z" transform="translate(-1000.376 -1970.595)" fill="url(#linear-gradient-12)"/>
      <path id="Path_5111" data-name="Path 5111" d="M1111.7,2207.93c-2.412-6.962-7.061-8.8-7.226-15.374-.117-4.648,2.176-5.029,2.024-9.479-.231-6.745-5.658-10.285-8.383-14.534-2.878-4.483-3.982-11.686,3.782-23.663l-17.515,1.974a102.764,102.764,0,0,0,8.708,32.744c3.781,8.289,7.631,13.728,8.984,23.876.85,6.376-.034,8.99,1.66,14.21,2.729,8.413,9.213,14.543,14.419,18.479l1.673-.26c-5.63-4.9-7.615-9.268-8.122-12.816C1110.877,2217.321,1114.131,2214.949,1111.7,2207.93Z" transform="translate(-1000.41 -1984.341)" opacity="0.3" fill="url(#linear-gradient-13)"/>
      <path id="Path_5112" data-name="Path 5112" d="M920.715,2118.03q-3.912,26.231-7.161,53.46-2.429,20.425-4.337,40.355l-6.663.338a46.468,46.468,0,0,1-5.953-13.25c-1.851-6.975-1.007-11.042-1.516-18.217-.572-8.046-2.129-9.855-4.373-20.064-4.553-20.721-6.83-31.082.391-37.19C893.444,2121.479,900.7,2116.558,920.715,2118.03Z" transform="translate(-828.299 -1959.798)" fill="#797979"/>
      <path id="Path_5113" data-name="Path 5113" d="M715.2,1488.225a130.308,130.308,0,0,1,8.107,15.061c1.931,4.248,3.7,8.14,5.167,11.96a55.17,55.17,0,0,1,4.078,19.212c.054,2.476.021,9.405.583,19.584.361,6.6.743,10.391,3.754,11.374,3.14,1.025,5.685-2.127,13.3-4,5.588-1.38,11.213-1.01,22.257-.212,16.457,1.191,17.628,2.885,20.854,1.481,4.955-2.161,3.781-6.858,6.591-24.835,1.726-11.02,2.46-11.143,3.216-18.955a127.191,127.191,0,0,0,.391-19.3q-1.8-7.3-3.581-14.6a195.908,195.908,0,0,0-74.572-.629q-1.9.348-3.685.719A38.485,38.485,0,0,0,715.2,1488.225Z" transform="translate(-679.366 -1383.606)" fill="#797979"/>
      <path id="Path_5114" data-name="Path 5114" d="M858.535,1819.69c-8.094-2.517-8.047-7.724-15.608-9.9-10.788-3.1-22.708,4.1-24.57,2.1-1.936-2.079,12.3-8.455,10.406-14.742-1.5-5-11.443-4.111-16.765-10.951-5.049-6.488-.154-12.487-4.625-14.742-1.6-.808-4.433-1.128-9.793.591,3.738,8.509,6.42,16.011,6.614,25.313.051,2.478.017,9.4.578,19.586.364,6.6.747,10.39,3.758,11.373,3.14,1.025,5.686-2.125,13.3-4,5.589-1.378,11.221-1.006,22.257-.21,16.458,1.189,17.624,2.884,20.85,1.479,2.1-.915,3.1-2.29,3.767-4.932A27.11,27.11,0,0,1,858.535,1819.69Z" transform="translate(-751.005 -1645.806)" fill="#797979" opacity="0.3"/>
      <path id="Path_5115" data-name="Path 5115" d="M992.75,1482.034c-.016,2.469,5.046,10.839,13.74,23.066,2.415,3.388,5.282,7.1,8.288,11.1a59.573,59.573,0,0,0,3.8-7.523h0c4.642-13.333,1.89-24.32,1.318-25.915-.051-.136-.741-.256-.741-.256C1008.849,1480.024,995.508,1481.418,992.75,1482.034Z" transform="translate(-920.727 -1383.607)" fill="#fff"/>
      <path id="Path_5116" data-name="Path 5116" d="M1008.968,1370.94a25.158,25.158,0,0,1-1.3,6.643c-.605,1.759-.981,2.206-1.443,2.565-.7.536-1.727.968-7.42,1.765-3.1.432-3.49.4-3.579.622-.408,1.066,7.661,5.066,16.341,4.516,5.312-.338,10.27-2.342,10.06-3.5s-5.525-.754-6.941-2.91c-.986-1.5.391-3.521,1.964-5.179C1015.389,1373.485,1010.228,1372.907,1008.968,1370.94Z" transform="translate(-922.863 -1283.926)" fill="#ffbe9d"/>
      <path id="Path_5117" data-name="Path 5117" d="M1070.119,1326.624a3.26,3.26,0,0,0-1.012-4.583,7.756,7.756,0,0,0-4.573-.946c-3.39.067-7.41,1.52-8.436,3.912-.608,1.418,1.81,3.979,2.2,4.444a5.651,5.651,0,0,0,1.726,1.021c.889.508,2.286,1.316,4.57,2.673a7.691,7.691,0,0,1,.435-1.73,7.821,7.821,0,0,1,1.206-2.105C1067.673,1327.584,1069.169,1327.877,1070.119,1326.624Z" transform="translate(-975.731 -1238.809)" fill="#797979"/>
      <path id="Path_5118" data-name="Path 5118" d="M1078.51,1373.591a9.053,9.053,0,0,0,7.041,1.734c3.877-.592,3.2-7.046.432-8.143a6.714,6.714,0,0,0-3.932.039c-.771.247-1,.518-2.264.9-1.174.356-1.533.295-1.855.557-.4.329-.6,1.054.528,2.844a2.783,2.783,0,0,0-2.385-.307,1.088,1.088,0,0,0-.448.424C1075.22,1372.425,1076.318,1373.267,1078.51,1373.591Z" transform="translate(-992.725 -1280.276)" fill="#ffbe9d"/>
      <path id="Path_5119" data-name="Path 5119" d="M1076.519,1381.666c.209.083-.268.656-.168,1.386.192,1.418,2.477,2.906,4.508,2.842,1.2-.039,1.42-.59,3.343-.944a12.256,12.256,0,0,1,2.868-.176,2.774,2.774,0,0,1-.636,3.945c-1.377.929-3.419.665-4.272.555a6.61,6.61,0,0,1-3.544-1.382c-1.189-1.117-.4-1.949-1.653-2.66a9.715,9.715,0,0,1-2.251-1.193,4.29,4.29,0,0,1-.5-.5C1075.069,1382.657,1076.217,1381.546,1076.519,1381.666Z" transform="translate(-991.566 -1293.625)" fill="#797979"/>
      <path id="Path_5120" data-name="Path 5120" d="M1146.785,1421.734a6.073,6.073,0,0,1-2.254.5c-.072.005-.147.028-.151.056a2.329,2.329,0,0,0,1.841.19c.588-.19.982-.664.879-.76C1147.055,1421.681,1146.918,1421.7,1146.785,1421.734Z" transform="translate(-1052.586 -1329.863)" fill="url(#linear-gradient-14)"/>
      <path id="Path_5121" data-name="Path 5121" d="M1089.724,1537.24l-.939,4.04h-3.867l-3.208-3.818S1089.086,1537.666,1089.724,1537.24Z" transform="translate(-998.089 -1434.427)" fill="#ffc731"/>
      <path id="Path_5122" data-name="Path 5122" d="M1098.13,1590.2q1.1,1.536,2.274,3.162c1.806,2.5,3.911,5.147,6.015,7.938a59.545,59.545,0,0,0,3.8-7.523h0l-6.911-17.955-.188-.285c-.007-.025-.056-.047-.072-.07-.493-.79-3.83,0-3.83,0Z" transform="translate(-1012.367 -1468.701)" fill="#ffc731"/>
      <path id="Path_5123" data-name="Path 5123" d="M1115.57,1600.08c1.806,2.5,3.911,5.147,6.015,7.938a59.48,59.48,0,0,0,3.8-7.523h0l-6.91-17.955c-.677.108-2.248.629-2.048,3.075.251,3.157,4.861,8.724,2.252,10.951A18.3,18.3,0,0,0,1115.57,1600.08Z" transform="translate(-1027.534 -1475.424)" fill="#ffc731" opacity="0.3"/>
      <path id="Path_5124" data-name="Path 5124" d="M475.793,1576.775c8.824,5.947,21.3,5.781,26.842,5.42q1.1-1.987,2.194-3.969c-9.326-4.991-14.569-12.415-12.509-18.759,2.536-7.823,15.456-11.815,20.411-13.1.782-.2,1.37-.341,1.683-.412,6.947-1.615,9.321-.554,11.727-2.426,7.33-5.71-1.695-26.615-15.056-28a11.018,11.018,0,0,0-1.483-.051,12.788,12.788,0,0,0-3.685.719,38.716,38.716,0,0,0-6.462,3.148c-1.565.888-3.237,1.883-5.093,2.916-5.669,3.16-14.994,8.36-20.862,17.654C468.392,1548.025,461.1,1566.872,475.793,1576.775Z" transform="translate(-463.624 -1414.732)" fill="#797979"/>
      <path id="Path_5125" data-name="Path 5125" d="M682.715,1735.1l-1.2-1.51c-1.91-2.409-.681-5.451,2.746-6.79l134.352-52.468,7.3,10.13-133.585,52.552C688.926,1738.352,684.62,1737.5,682.715,1735.1Z" transform="translate(-649.292 -1558.493)" fill="url(#linear-gradient-15)"/>
      <path id="Path_5126" data-name="Path 5126" d="M1722.829,907.277c-38.334,15.613-86.854,5.058-108.22-24.445-21.876-30.21-6.471-67.859,34.211-83.166,39.947-15.03,87.972-2.271,107.5,27.618C1775.4,856.494,1760.493,891.935,1722.829,907.277Zm-5.7-8.288c31.825-12.886,44.377-42.791,28.175-67.387-16.518-25.08-56.885-35.643-90.323-22.977-33.95,12.859-46.854,44.321-28.685,69.625,17.814,24.805,58.533,33.815,90.829,20.739Z" transform="translate(-1452.848 -761.198)" fill="url(#linear-gradient-16)"/>
      <path id="Path_5127" data-name="Path 5127" d="M818.6,1674.33l-17.13,6.69a11.833,11.833,0,0,1-3.912,9.033c-7.693,6.9-21.644,2.612-37.03,11.622-7.717,4.521-5.513,6.365-12.96,9.82-12.311,5.709-19.846,1.364-30.716,6.512-11,5.207-10.122,12.891-16.97,13.6-2.929.305-7.079-.691-12.827-5.911l-2.81,1.1c-3.427,1.339-4.656,4.381-2.746,6.79l1.2,1.51c1.9,2.4,6.211,3.256,9.617,1.916l133.575-52.548Z" transform="translate(-649.274 -1558.493)" opacity="0.3" fill="url(#linear-gradient-17)"/>
      <path id="Path_5128" data-name="Path 5128" d="M1749.7,931.466c-38.334,15.613-86.854,5.059-108.221-24.445-21.877-30.21-6.471-67.859,34.21-83.166,39.949-15.03,87.974-2.272,107.5,27.617C1802.271,880.684,1787.362,916.124,1749.7,931.466Zm-5.7-8.287c31.824-12.885,44.378-42.791,28.177-67.387-16.519-25.08-56.885-35.643-90.322-22.978-33.95,12.86-46.855,44.32-28.685,69.626C1670.981,927.245,1711.7,936.255,1744,923.179Z" transform="translate(-1476.21 -783.089)" fill="url(#linear-gradient-18)"/>
      <path id="Path_5129" data-name="Path 5129" d="M1779.414,961.985c-36.2,14.714-81.964,4.7-102.065-23.144-20.557-28.473-6.038-63.926,32.249-78.366,37.641-14.2,82.96-2.22,101.427,25.966C1829.1,914.022,1815.023,947.511,1779.414,961.985Zm-3.688-5.363c31.824-12.886,44.378-42.791,28.176-67.387-16.519-25.08-56.884-35.643-90.322-22.978-33.95,12.86-46.854,44.321-28.685,69.626C1702.711,960.688,1743.43,969.7,1775.726,956.622Z" transform="translate(-1507.94 -816.533)" fill="url(#linear-gradient-19)"/>
      <path id="Path_5130" data-name="Path 5130" d="M743.17,2174.96l1.235-2.235a8.232,8.232,0,0,0,3.669-.774,6.191,6.191,0,0,1,2.964-.517c.464.094,2.216.037.219.733s-1.985,1.211-1.15,1.782a17.154,17.154,0,0,0,5.148,1.857c1.141.059-.922,1.346-2.075,1.51a9.44,9.44,0,0,1-5.376-.63C746.951,2176.321,743.17,2174.96,743.17,2174.96Z" transform="translate(-703.689 -2008.347)" fill="url(#linear-gradient-20)"/>
      <path id="Path_5131" data-name="Path 5131" d="M1607.982,1830.2s4.084-1.2,5.647-4.37-1.114-.1-4.879.706l-3.764.809s-3.994.749-3.528,1.908S1607.982,1830.2,1607.982,1830.2Z" transform="translate(-1450.036 -1694.331)" fill="url(#linear-gradient-20)"/>
      <path id="Path_5132" data-name="Path 5132" d="M1945.227,2586.569s4.895,1.2,5.415,7.421c-.8-.05-2.667,0-2.667,0s.345-4.522-3.135-5.4A7.65,7.65,0,0,0,1945.227,2586.569Z" transform="translate(-1748.678 -2384.071)" fill="url(#linear-gradient-22)"/>
      <path id="Path_5133" data-name="Path 5133" d="M1810.09,2571.207q.183,1.7.366,3.4a40.829,40.829,0,0,1,18.011-.488,2.256,2.256,0,0,0,.549-1.046,2.741,2.741,0,0,0-.208-1.782,38.481,38.481,0,0,0-4.991-1A37.648,37.648,0,0,0,1810.09,2571.207Z" transform="translate(-1631.498 -2369.082)" fill="url(#linear-gradient-23)"/>
      <path id="Path_5134" data-name="Path 5134" d="M1808.313,2583.6c.008-.41.048-.92.228-.98s.4.313.5.518a2.731,2.731,0,0,1,.186.951,3.931,3.931,0,0,1-.088,1.528c-.047.155-.12.389-.229.4-.087,0-.163-.145-.275-.432A5.1,5.1,0,0,1,1808.313,2583.6Z" transform="translate(-1629.949 -2380.489)" fill="url(#linear-gradient-24)"/>
      <path id="Path_5135" data-name="Path 5135" d="M1774.16,2595.634c1.013.146,3.479.584,3.479.584s-1.607-3.978,1.424-5.813a3.246,3.246,0,0,0,.062-1.351,3.353,3.353,0,0,0-.362-1.045C1777.476,2588.572,1774.676,2590.458,1774.16,2595.634Z" transform="translate(-1600.252 -2385.375)" fill="url(#linear-gradient-25)"/>
      <path id="Path_5136" data-name="Path 5136" d="M1613.31,2659.379s.13-2.09,4.354-2.09c.665.38.7,2.09.7,2.09Z" transform="translate(-1460.375 -2448.072)" fill="url(#linear-gradient-26)"/>
      <path id="Path_5137" data-name="Path 5137" d="M1576.3,2713.148l11.573,5.5,7.012-20.214-11.553-27.1-3.277.754-4.97,38.924A2.082,2.082,0,0,0,1576.3,2713.148Z" transform="translate(-1427.119 -2460.787)" fill="url(#linear-gradient-27)"/>
      <path id="Path_5138" data-name="Path 5138" d="M1628.14,2698.44l-11.554-27.1-3.276.755a42.119,42.119,0,0,1,1.376,8.455c.774,9.227,3.347,11.794,2.1,18.231-1.035,5.352-3.3,6.079-3.1,9.679.215,3.922,3.129,7.205,6.588,9.785l.854.405Z" transform="translate(-1460.375 -2460.787)" opacity="0.3" fill="url(#linear-gradient-28)"/>
      <path id="Path_5139" data-name="Path 5139" d="M1638.44,2671.34h63.542l10,42.955-69,4.358Z" transform="translate(-1482.229 -2460.787)" fill="url(#linear-gradient-29)"/>
      <g id="Group_145" data-name="Group 145" transform="translate(163.344 210.552)" opacity="0.2">
        <path id="Path_5140" data-name="Path 5140" d="M1749.55,2671.34h-21.406a26.752,26.752,0,0,1-1.877,3.476c-9.572,14.994-31.488,16.884-31.092,19.347.592,3.683,49.393-1.544,50.639,3.516.6,2.442-9.7,8-20.47,10.1-12.892,2.518-22.368-.656-28.669,5a12.307,12.307,0,0,0-3.534,5.677l66.416-4.163Z" transform="translate(-1693.14 -2671.34)" fill="url(#linear-gradient-30)"/>
      </g>
      <path id="Path_5141" data-name="Path 5141" d="M1623.864,2657.269a6.112,6.112,0,0,0-2.806.432,4.647,4.647,0,0,0-.618.345l.5-.14a2.355,2.355,0,0,1,2.333.7,10.4,10.4,0,0,1,.806,3.483c.317,2.547,2.267,18.389,2.267,18.389a2.811,2.811,0,0,0,2.963,2.321l59.106-2.415a2.545,2.545,0,0,0,1.264-.34,1.885,1.885,0,0,0,.943-2.041l-3-18.868a2.593,2.593,0,0,0-2.6-1.862Z" transform="translate(-1466.575 -2448.051)" fill="url(#linear-gradient-31)"/>
      <path id="Path_5142" data-name="Path 5142" d="M1629.175,2657.161a11.072,11.072,0,0,0-2.511.125,2.958,2.958,0,0,0-.844.271s2.007-.38,2.765.938a11.8,11.8,0,0,1,.806,3.484c.316,2.546,2.267,18.388,2.267,18.388a2.812,2.812,0,0,0,2.962,2.322l59.773-1.01a2.532,2.532,0,0,0,1.263-.341,1.884,1.884,0,0,0,.943-2.039l-3.661-20.274a2.593,2.593,0,0,0-2.6-1.863Z" transform="translate(-1471.254 -2447.943)" fill="url(#linear-gradient-32)"/>
      <path id="Path_5143" data-name="Path 5143" d="M1696.6,2679.3l-3.661-20.274a2.593,2.593,0,0,0-2.6-1.863h-61.166a11.072,11.072,0,0,0-2.511.125,2.958,2.958,0,0,0-.844.271s2.007-.38,2.765.938a3.025,3.025,0,0,1,.2.448c5.809.181,11.618.052,17.426.347,11.483.569,23.1.569,33.933,4.2,3.468,1.161,5.844,5.334,4.9,7.262-.678,1.389-3,1.279-3.8,3.1-.849,1.918,1.188,3.221.334,4.567-.9,1.411-3.614.74-8.016,1.747a24.217,24.217,0,0,0-5.448,1.957l26.274-.444a2.532,2.532,0,0,0,1.263-.341A1.891,1.891,0,0,0,1696.6,2679.3Z" transform="translate(-1471.254 -2447.943)" opacity="0.1" fill="url(#linear-gradient-33)"/>
      <path id="Path_5144" data-name="Path 5144" d="M1881.771,2881.153l-7.486,1.409-.79.052a1.362,1.362,0,0,1-1.516-1.2l-.329-6.708a1.326,1.326,0,0,1,1.394-1.308l.795-.009,7.524.748c.718-.008,1.325-.307,1.356.358l.309,6.292C1883.061,2881.454,1882.488,2881.107,1881.771,2881.153Z" transform="translate(-1685.031 -2643.644)" fill="url(#linear-gradient-34)"/>
      <path id="Path_5145" data-name="Path 5145" d="M1886.018,2881.266l-8.293.531a1.364,1.364,0,0,1-1.517-1.2l-.328-6.709a1.326,1.326,0,0,1,1.394-1.307l8.313-.095a1.318,1.318,0,0,1,1.362,1.195l.307,6.292A1.284,1.284,0,0,1,1886.018,2881.266Z" transform="translate(-1688.709 -2642.828)" fill="url(#linear-gradient-35)"/>
    </g>
  </g>
</svg>
